PathFileType	4	(X/Y/Z)	/Users/itak/Documents/Research/Walk-IL/dataset/trc/00497_00183.trc
DataRate	CameraRate	NumFrames	NumMarkers	Units	OrigDataRate	OrigDataStartFrame	OrigNumFrames
100.000000	100.000000	4	53	mm	100.000000	451	723
Frame#	Time	RPSI			LPSI			L3			STRN			T10			C7			CLAV			RBAK			LBAK			LSHO			LUPA			LAEL			LAOL			LWTS			LWPS			LFRA			LIFD			LHPS			LHTS			RSHO			RUPA			RAEL			RAOL			RWTS			RWPS			RFRA			RIFD			RHTS			RHPS			RBHD			LFHD			RFHD			LBHD			LHIP			RHIP			RASI			LASI			LKNE			LTHI			LANK			LTIP			LTOE			LMT1			LMT5			LHEE			RKNE			RTHI			RANK			RTIP			RTOE			RMT1			RMT5			RHEE			
		X1	Y1	Z1	X2	Y2	Z2	X3	Y3	Z3	X4	Y4	Z4	X5	Y5	Z5	X6	Y6	Z6	X7	Y7	Z7	X8	Y8	Z8	X9	Y9	Z9	X10	Y10	Z10	X11	Y11	Z11	X12	Y12	Z12	X13	Y13	Z13	X14	Y14	Z14	X15	Y15	Z15	X16	Y16	Z16	X17	Y17	Z17	X18	Y18	Z18	X19	Y19	Z19	X20	Y20	Z20	X21	Y21	Z21	X22	Y22	Z22	X23	Y23	Z23	X24	Y24	Z24	X25	Y25	Z25	X26	Y26	Z26	X27	Y27	Z27	X28	Y28	Z28	X29	Y29	Z29	X30	Y30	Z30	X31	Y31	Z31	X32	Y32	Z32	X33	Y33	Z33	X34	Y34	Z34	X35	Y35	Z35	X36	Y36	Z36	X37	Y37	Z37	X38	Y38	Z38	X39	Y39	Z39	X40	Y40	Z40	X41	Y41	Z41	X42	Y42	Z42	X43	Y43	Z43	X44	Y44	Z44	X45	Y45	Z45	X46	Y46	Z46	X47	Y47	Z47	X48	Y48	Z48	X49	Y49	Z49	X50	Y50	Z50	X51	Y51	Z51	X52	Y52	Z52	X53	Y53	Z53	

452	4.51	-66.62261962890625	945.36865234375	69.55400085449219	-20.63883590698242	944.0140380859375	-45.77969741821289	-43.84042739868164	1017.557006835938	2.690248489379883	162.2161254882812	1170.455810546875	69.63751220703125	-59.54299545288086	1121.040893554688	0.01924864947795868	-12.90935039520264	1350.803344726562	19.94949722290039	130.8202056884766	1266.580200195312	62.07431030273438	-89.5714111328125	1229.117797851562	83.07517242431641	-12.25404930114746	1299.975952148438	-73.22297668457031	102.8415298461914	1342.157348632812	-113.4927825927734	111.0539398193359	1216.046997070312	-175.4908294677734	130.6851654052734	1006.370727539062	-197.7035675048828	36.72225570678711	997.2356567382812	-168.9551391601562	196.1670227050781	814.2741088867188	-125.2528457641602	143.9877471923828	783.3569946289062	-196.8725433349609	151.269287109375	930.9280395507812	-192.9603118896484	183.0837860107422	656.8151245117188	-116.5448989868164	160.0289764404297	727.6655883789062	-182.1802673339844	207.4270477294922	734.9297485351562	-138.4996643066406	-5.988872528076172	1337.986083984375	177.6773834228516	-40.91135406494141	1270.10986328125	225.5735778808594	-44.40087127685547	1001.99365234375	270.9648132324219	-83.66001129150391	983.3281860351562	221.4353332519531	91.22795104980469	819.8106689453125	266.8306274414062	9.922264099121094	781.2410888671875	284.5712280273438	-35.90414810180664	947.2515258789062	278.0646667480469	124.0666809082031	663.9572143554688	258.0898132324219	115.5122985839844	727.5638427734375	288.4717102050781	45.96165466308594	711.6321411132812	287.6082458496094	-6.349740982055664	1492.073364257812	118.4155044555664	166.8600921630859	1565.340209960938	50.52606582641602	111.4279174804688	1547.964477539062	163.7937316894531	49.99066543579102	1509.810546875	-29.20118141174316	127.1554870605469	863.1689453125	-136.84912109375	-5.324464321136475	851.2909545898438	224.9206237792969	108.5322036743164	895.0271606445312	191.6068267822266	187.2986755371094	897.0119018554688	-38.16500091552734	58.5001106262207	445.2972106933594	-83.129638671875	111.9331359863281	598.6610107421875	-98.9404296875	-159.5264129638672	71.99347686767578	-160.2300720214844	-10.47194671630859	308.4972534179688	-112.0929641723633	-20.38592338562012	33.32411575317383	-17.74029731750488	-101.1072006225586	45.04745483398438	-24.16009521484375	-61.56997680664062	43.64182662963867	-119.1975860595703	-228.3003387451172	84.29700469970703	-126.8413543701172	112.3200912475586	480.0826721191406	222.7997436523438	36.12403869628906	727.4801025390625	244.3858795166016	165.5289459228516	43.86330032348633	221.211181640625	160.8827209472656	340.7158508300781	229.6465911865234	359.3155517578125	76.81098175048828	261.1412963867188	319.564208984375	62.27809524536133	200.4320526123047	260.3251647949219	55.99420166015625	278.001708984375	141.0000305175781	28.39235877990723	156.7374725341797	
453	4.52	-61.21224212646484	946.64208984375	73.55034637451172	-15.33111572265625	944.9343872070312	-41.76169204711914	-38.54425048828125	1018.277954101562	6.899600982666016	167.2303771972656	1171.360595703125	73.49909973144531	-54.43830108642578	1121.609619140625	4.325287818908691	-8.34508228302002	1351.481689453125	24.07562255859375	135.6579742431641	1267.443969726562	65.94882965087891	-84.61392974853516	1229.652099609375	87.40705108642578	-7.759153366088867	1300.642456054688	-69.05895233154297	107.2189407348633	1342.986206054688	-109.5666961669922	115.0207061767578	1216.924560546875	-171.7634735107422	134.1096801757812	1007.320129394531	-194.3495635986328	40.44268035888672	998.207275390625	-164.4721221923828	200.2664642333984	815.0682983398438	-123.0525665283203	147.2278137207031	784.42041015625	-194.0357055664062	154.5925445556641	931.7344360351562	-189.9498901367188	187.3505706787109	657.5043334960938	-114.798942565918	163.4793395996094	728.6207275390625	-179.7994232177734	211.4979705810547	735.7888793945312	-136.6868591308594	-1.017967462539673	1338.75	181.7864379882812	-35.57898712158203	1270.794067382812	229.8544311523438	-37.72285461425781	1002.719421386719	275.4388732910156	-77.38543701171875	983.9934692382812	226.1782379150391	97.37738800048828	819.8995361328125	270.2688903808594	16.11931991577148	781.8706665039062	288.81787109375	-29.18081665039062	948.0145874023438	282.5890197753906	129.1797027587891	663.8286743164062	261.5604553222656	121.3661499023438	727.5430908203125	291.9028625488281	51.72444915771484	712.0980834960938	291.6756896972656	-1.804429411888123	1492.943481445312	122.4233627319336	171.1505279541016	1566.22509765625	53.90423202514648	116.0874710083008	1548.947021484375	167.3619689941406	54.10079956054688	1510.521118164062	-25.40830612182617	131.8422698974609	863.821533203125	-132.6982727050781	0.1505775302648544	852.5053100585938	228.8428649902344	113.9016723632812	895.9735717773438	195.5917205810547	192.4268798828125	897.55029296875	-34.191162109375	62.98142623901367	445.9205627441406	-80.00596618652344	116.9123382568359	599.279296875	-95.13395690917969	-158.1610870361328	74.7276611328125	-159.9402008056641	-6.997416496276855	309.9212646484375	-110.1045913696289	-20.36440849304199	33.33546447753906	-17.72486686706543	-100.3997039794922	45.79300689697266	-23.9450626373291	-60.92002105712891	44.14927673339844	-119.1771011352539	-226.6361541748047	88.04737091064453	-126.36376953125	117.6081848144531	480.7779235839844	226.1874084472656	41.71508407592773	728.6663208007812	248.0790557861328	166.0283050537109	43.84549331665039	221.5932922363281	165.0019989013672	340.8796691894531	231.8320159912109	360.4280700683594	73.94265747070312	262.34423828125	320.4635314941406	60.61888122558594	201.4078826904297	260.7078247070312	54.58253860473633	278.6268920898438	141.3912506103516	29.0139045715332	157.0138702392578	
454	4.53	-55.78775405883789	947.95703125	77.47618103027344	-9.980982780456543	945.9452514648438	-37.80094909667969	-33.19390869140625	1019.102783203125	11.0269021987915	172.2321624755859	1172.371337890625	77.46600341796875	-49.27049255371094	1122.2958984375	8.520086288452148	-3.738129138946533	1352.267333984375	28.1728572845459	140.5009613037109	1268.41796875	69.90514373779297	-79.64903259277344	1230.301391601562	91.64186096191406	-3.170522689819336	1301.435668945312	-64.92586517333984	111.7210159301758	1343.960815429688	-105.5404357910156	119.2256317138672	1217.991943359375	-167.9881744384766	137.6704406738281	1008.446228027344	-190.9184875488281	44.28281402587891	999.4110717773438	-159.9596099853516	204.5030822753906	816.0759887695312	-120.7852020263672	150.5483093261719	785.6224975585938	-191.0805053710938	158.0252227783203	932.76220703125	-186.8526611328125	191.7094268798828	658.3798828125	-112.8999252319336	167.0219879150391	729.7256469726562	-177.2671661376953	215.6857147216797	736.8389282226562	-134.7818298339844	3.899994850158691	1339.648681640625	185.8640899658203	-30.32171630859375	1271.6279296875	234.0970916748047	-31.00483703613281	1003.602966308594	279.8899230957031	-71.09423065185547	984.7821044921875	230.9234924316406	103.5202102661133	820.1467895507812	273.6722412109375	22.35069274902344	782.6821899414062	293.1390686035156	-22.40221977233887	948.9441528320312	287.1026916503906	134.2716217041016	663.8518676757812	265.1254577636719	127.2425155639648	727.6925048828125	295.3692626953125	57.51033020019531	712.7473754882812	295.8529357910156	2.725747108459473	1493.895263671875	126.4384613037109	175.4158935546875	1567.219116210938	57.30625152587891	120.7153244018555	1550.045043945312	170.9429626464844	58.22255706787109	1511.310302734375	-21.60478019714355	136.5419158935547	864.5791625976562	-128.427734375	5.514574527740479	853.7517700195312	232.7157287597656	119.2311096191406	897.0347290039062	199.6887969970703	197.5633544921875	898.1934814453125	-30.09628105163574	67.88153839111328	446.5780944824219	-76.68228149414062	122.1295013427734	599.983642578125	-91.16693115234375	-156.5899963378906	77.68962860107422	-159.5701141357422	-3.140974521636963	311.4541931152344	-107.9597015380859	-20.33340454101562	33.35017776489258	-17.70334243774414	-99.5889892578125	46.59407043457031	-23.69359970092773	-60.20226287841797	44.69255828857422	-119.1530914306641	-224.7203826904297	92.10789489746094	-125.7720413208008	122.6687088012695	481.4374084472656	229.6668395996094	47.16918563842773	729.9020385742188	251.7920837402344	166.4152526855469	43.79245758056641	222.0270233154297	168.8229675292969	341.0114135742188	234.1048583984375	361.329345703125	71.34665679931641	263.6065673828125	321.1726684570312	59.20767974853516	202.4377593994141	260.9521179199219	53.25636672973633	279.3267211914062	141.6805572509766	29.57872009277344	157.3402709960938	
455	4.54	-50.35469818115234	949.263916015625	81.39389038085938	-4.608599185943604	947.0255126953125	-33.84163665771484	-27.80620956420898	1019.99609375	15.12759017944336	177.2236633300781	1173.455322265625	81.52692413330078	-44.06557083129883	1123.0576171875	12.63694286346436	0.8972885012626648	1353.124633789062	32.24687194824219	145.3480987548828	1269.469116210938	73.93132781982422	-74.67539978027344	1231.027954101562	95.80615997314453	1.489359498023987	1302.312744140625	-60.81811904907227	116.3128204345703	1345.032348632812	-101.4285888671875	123.6483612060547	1219.200927734375	-164.1762847900391	141.386474609375	1009.696228027344	-187.4335021972656	48.25968551635742	1000.78759765625	-155.4762878417969	208.8811340332031	817.2470703125	-118.4276504516602	153.9869232177734	786.9068603515625	-188.0169982910156	161.6016845703125	933.9608154296875	-183.6829223632812	196.1794586181641	659.409423828125	-110.7922286987305	170.6866607666016	730.9281005859375	-174.5658111572266	219.990234375	738.0338745117188	-132.7494659423828	8.775097846984863	1340.64453125	189.9211730957031	-25.1286735534668	1272.569458007812	238.3167877197266	-24.27877044677734	1004.597595214844	284.3164367675781	-64.82377624511719	985.6555786132812	235.6801452636719	109.6464614868164	820.539794921875	277.0324401855469	28.61247062683105	783.6381225585938	297.5200805664062	-15.59549236297607	949.9896240234375	291.5901184082031	139.3803863525391	664.0235595703125	268.7738647460938	133.1528778076172	728.0091552734375	298.8594970703125	63.33951950073242	713.552734375	300.1254272460938	7.239051342010498	1494.896362304688	130.4463195800781	179.6542053222656	1568.293823242188	60.72049713134766	125.306037902832	1551.230590820312	174.5248718261719	62.34985733032227	1512.144409179688	-17.80028533935547	141.2509002685547	865.41943359375	-124.0532608032227	10.78518676757812	854.9542236328125	236.5842895507812	124.5378112792969	898.1324462890625	203.8946990966797	202.7008972167969	898.9198608398438	-25.89686393737793	73.21559143066406	447.2401123046875	-73.20453643798828	127.5482940673828	600.7542114257812	-87.11449432373047	-154.7967071533203	80.86056518554688	-159.1189270019531	1.102138519287109	313.0673828125	-105.6844863891602	-20.28976631164551	33.36845016479492	-17.67911338806152	-98.66919708251953	47.4442138671875	-23.40600776672363	-59.40139007568359	45.26347732543945	-119.1220397949219	-222.5291595458984	96.45184326171875	-125.065315246582	127.390266418457	482.0048217773438	233.1121215820312	52.47343826293945	731.090087890625	255.5428009033203	166.7391052246094	43.71750640869141	222.4761352539062	172.3144378662109	341.0723571777344	236.4080352783203	362.1083068847656	69.00309753417969	264.771240234375	321.7553100585938	57.99346160888672	203.3995819091797	261.163818359375	52.03266906738281	279.9965515136719	141.8923492431641	30.08671188354492	157.6971740722656	
